<?xml version="1.0" standalone="no"?>
<!DOCTYPE svg PUBLIC "-//W3C//DTD SVG 20010904//EN"
 "http://www.w3.org/TR/2001/REC-SVG-20010904/DTD/svg10.dtd">
<svg version="1.0" xmlns="http://www.w3.org/2000/svg"
 width="1280.000000pt" height="1280.000000pt" viewBox="0 0 1280.000000 1280.000000"
 preserveAspectRatio="xMidYMid meet">
<metadata>
Created by potrace 1.11, written by Peter Selinger 2001-2013
</metadata>
<g transform="translate(0.000000,1280.000000) scale(0.100000,-0.100000)"
fill="#000000" stroke="none">
<path d="M8644 12785 c11 -8 28 -13 37 -10 9 3 39 -2 65 -11 27 -9 65 -18 84
-20 62 -7 84 -11 114 -23 16 -7 54 -16 85 -20 31 -5 110 -20 176 -34 66 -14
156 -33 200 -41 44 -9 109 -23 145 -31 36 -8 81 -14 101 -15 19 0 59 -11 87
-25 33 -16 69 -25 99 -25 54 0 147 -22 168 -40 8 -7 38 -12 67 -12 29 0 79 -6
111 -13 31 -7 57 -10 57 -7 0 4 5 -1 11 -11 7 -12 20 -17 37 -16 15 1 47 -3
71 -10 23 -7 49 -10 56 -7 16 6 98 -14 106 -26 3 -5 23 -11 45 -14 21 -4 62
-17 90 -30 33 -15 79 -26 125 -29 99 -7 159 -15 189 -25 14 -4 52 -14 85 -21
33 -7 63 -17 66 -21 3 -5 30 -11 60 -15 30 -3 63 -10 74 -16 11 -6 35 -10 52
-8 18 1 47 -5 64 -13 18 -9 42 -16 55 -16 13 0 26 -4 29 -10 3 -5 26 -10 49
-10 24 0 49 -6 55 -13 6 -8 31 -14 55 -15 25 0 55 -7 68 -16 12 -9 32 -16 44
-16 12 0 27 -6 33 -14 6 -7 37 -16 69 -20 104 -11 130 -18 153 -42 12 -13 30
-24 40 -24 9 0 19 -6 22 -12 3 -10 9 -10 25 -1 18 11 21 9 26 -13 4 -14 4 -34
1 -44 -4 -12 3 -25 22 -39 15 -11 34 -26 41 -31 8 -8 12 -7 12 2 0 9 3 9 10
-2 6 -9 5 -17 -1 -21 -6 -3 4 -15 23 -27 21 -13 35 -17 39 -10 4 7 9 6 15 -3
4 -7 3 -14 -4 -17 -7 -2 -12 -12 -12 -23 0 -14 7 -19 28 -19 44 0 83 -22 76
-42 -4 -13 0 -18 15 -18 12 0 21 -4 21 -10 0 -5 -9 -10 -20 -10 -28 0 -25 -19
3 -19 12 0 32 -1 44 -1 13 0 24 -9 28 -20 8 -26 30 -25 42 2 7 16 9 1 8 -58
-1 -105 9 -127 52 -122 22 3 33 0 33 -9 0 -7 -4 -13 -10 -13 -5 0 -10 -6 -10
-14 0 -13 51 -46 71 -46 4 0 20 25 34 55 21 42 25 58 16 68 -8 11 -5 17 14 27
14 7 21 18 17 24 -4 6 -7 28 -8 49 0 29 3 37 18 37 13 0 18 8 18 25 0 24 17
52 53 84 16 14 17 45 17 361 l0 345 -40 2 c-22 2 -40 -1 -40 -5 0 -15 -52 -5
-61 11 -5 9 -15 14 -22 12 -6 -3 -17 -1 -24 3 -16 10 -29 182 -14 182 6 0 10
3 10 8 -5 27 3 52 16 52 10 0 15 10 15 31 0 20 8 38 23 50 22 18 19 18 -190
19 l-213 0 0 -40 c0 -22 4 -40 10 -40 5 0 7 -7 4 -15 -4 -9 2 -18 17 -23 l23
-9 -22 -5 c-34 -9 -26 -28 12 -28 25 0 35 -5 39 -20 3 -11 12 -20 21 -20 9 0
16 8 16 20 0 13 7 20 20 20 21 0 28 -24 10 -35 -8 -5 -8 -11 -1 -19 15 -18 3
-26 -35 -26 -26 0 -33 5 -38 25 -4 14 -11 23 -17 19 -6 -3 -62 -3 -125 1 -106
7 -113 9 -88 21 14 8 33 14 40 14 8 0 14 7 14 15 0 8 6 24 13 35 8 15 9 23 1
28 -6 4 -13 14 -16 21 -3 12 -6 12 -11 -2 -3 -9 -2 -17 3 -17 6 0 10 -7 10
-15 0 -21 -27 -19 -39 2 -11 21 3 53 24 53 8 0 15 9 15 20 0 25 -41 28 -60 5
-12 -14 -15 -14 -30 0 -25 23 -40 18 -40 -13 0 -27 -15 -52 -32 -52 -4 0 -8
18 -8 40 0 22 -4 40 -10 40 -5 0 -10 -18 -10 -40 0 -23 -5 -40 -11 -40 -7 0
-17 -8 -24 -17 -11 -14 -9 -20 11 -36 13 -10 22 -23 19 -28 -4 -5 3 -9 14 -9
25 0 28 -15 4 -17 -10 -1 -45 -3 -78 -4 -33 -2 -63 -8 -67 -14 -12 -17 -30 10
-32 51 -3 46 -24 94 -41 94 -22 0 -24 -12 -5 -32 10 -11 20 -32 22 -47 4 -25
1 -27 -21 -23 -20 3 -23 1 -12 -7 28 -19 -35 -25 -73 -7 -19 9 -39 16 -45 16
-14 0 -14 -17 -1 -25 6 -4 8 -11 5 -16 -8 -12 -52 -12 -60 1 -3 6 -26 10 -51
10 -25 0 -54 5 -64 10 -13 7 -21 7 -25 0 -10 -16 -45 -12 -45 5 0 11 -12 15
-50 15 -28 0 -52 5 -57 13 -9 13 -5 13 -143 15 -83 2 -100 5 -100 18 0 8 -5
12 -10 9 -6 -4 -17 -1 -25 5 -8 7 -22 10 -30 6 -8 -3 -25 -1 -37 4 -13 5 -17
9 -9 9 8 1 12 3 10 6 -3 2 -20 1 -37 -4 -18 -5 -32 -7 -32 -3 0 4 -47 5 -104
4 -100 -4 -104 -3 -129 22 -18 18 -35 25 -59 24 -18 -1 -44 4 -57 11 -12 7
-30 10 -38 7 -9 -4 -22 -1 -29 5 -11 9 -18 9 -28 0 -10 -8 -16 -9 -21 -1 -9
14 -115 13 -115 -1 0 -8 -4 -8 -13 -1 -9 8 -267 11 -832 11 -728 1 -818 -1
-801 -14z m3424 -53 c2 -7 -3 -12 -12 -12 -9 0 -16 7 -16 16 0 17 22 14 28 -4z
m419 -26 c-3 -7 0 -19 6 -25 6 -6 7 -14 3 -18 -4 -4 -11 -1 -15 6 -7 11 -15
11 -41 2 -41 -14 -40 -14 -40 2 0 6 12 19 28 29 34 21 66 23 59 4z m63 -16 c0
-5 -4 -10 -10 -10 -5 0 -10 5 -10 10 0 6 5 10 10 10 6 0 10 -4 10 -10z m-477
-57 c-7 -2 -19 -2 -25 0 -7 3 -2 5 12 5 14 0 19 -2 13 -5z m407 -9 c0 -8 -4
-12 -10 -9 -5 3 -10 10 -10 16 0 5 5 9 10 9 6 0 10 -7 10 -16z m-400 -40 c0
-8 -4 -12 -10 -9 -5 3 -10 10 -10 16 0 5 5 9 10 9 6 0 10 -7 10 -16z m490 -58
c0 -3 -4 -8 -10 -11 -5 -3 -10 -1 -10 4 0 6 5 11 10 11 6 0 10 -2 10 -4z
m-365 -596 c-5 -8 -11 -8 -17 -2 -6 6 -7 16 -3 22 5 8 11 8 17 2 6 -6 7 -16 3
-22z m235 -215 c0 -16 -9 -19 -36 -8 -16 6 -16 7 2 14 29 11 34 10 34 -6z
m100 -241 c0 -16 -16 -19 -25 -4 -8 13 4 32 16 25 5 -4 9 -13 9 -21z m84 -66
c-7 -10 -34 -10 -34 0 0 4 5 13 12 20 9 9 14 9 19 0 4 -7 5 -16 3 -20z"/>
<path d="M11790 12766 c0 -9 6 -16 13 -16 17 -1 52 -31 60 -53 10 -26 31 -16
34 16 2 29 -10 41 -49 51 -14 3 -33 9 -42 12 -11 4 -16 1 -16 -10z"/>
<path d="M10687 12756 c-4 -9 3 -16 21 -19 36 -7 49 3 27 20 -24 17 -41 17
-48 -1z"/>
<path d="M12224 12662 c-4 -12 -11 -22 -16 -22 -6 0 -5 -7 2 -15 7 -8 16 -15
20 -15 13 0 22 52 10 64 -8 8 -12 4 -16 -12z"/>
<path d="M11857 12652 c-14 -16 -14 -17 14 -17 32 0 36 7 16 24 -11 8 -18 7
-30 -7z"/>
<path d="M12048 11883 c7 -3 16 -2 19 1 4 3 -2 6 -13 5 -11 0 -14 -3 -6 -6z"/>
<path d="M7160 11244 c0 -11 -6 -15 -20 -11 -13 3 -20 0 -20 -9 0 -19 -42 -28
-95 -20 -45 7 -63 26 -25 26 11 0 20 5 20 11 0 8 -18 9 -57 4 -66 -8 -73 -11
-73 -31 0 -21 -40 -18 -40 4 -1 16 -1 16 -14 0 -8 -11 -27 -18 -49 -18 -39 0
-55 -14 -39 -33 5 -7 13 -22 16 -34 9 -27 -6 -30 -47 -8 -25 13 -30 12 -62 -9
-18 -13 -41 -31 -50 -40 -9 -9 -25 -16 -36 -16 -12 0 -23 -10 -29 -25 -7 -19
-17 -25 -40 -25 -20 0 -30 5 -30 15 0 8 5 15 12 15 8 0 9 3 2 10 -17 17 -122
24 -140 9 -19 -15 -47 -21 -38 -8 8 13 -30 11 -43 -2 -9 -9 -16 -7 -29 5 -9
10 -23 15 -31 12 -8 -3 -17 -6 -19 -6 -2 0 -4 -4 -4 -10 0 -5 6 -10 14 -10 22
0 30 -19 16 -35 -16 -19 1 -19 26 0 12 9 31 12 52 9 21 -4 40 -1 57 10 29 19
64 20 88 2 25 -20 21 -26 -18 -24 -24 1 -43 -6 -60 -22 -20 -19 -37 -24 -91
-25 -43 -2 -69 -8 -75 -16 -6 -11 -11 -11 -21 -1 -6 6 -23 12 -38 12 -24 1
-24 1 -5 12 11 6 25 19 32 27 15 21 -1 38 -21 22 -8 -7 -24 -10 -34 -7 -11 4
-43 9 -73 12 -29 3 -56 9 -59 14 -3 5 -17 10 -32 12 -14 2 -33 10 -42 18 -15
12 -18 11 -23 -8 -3 -12 -11 -22 -18 -22 -8 0 -27 -13 -43 -30 -17 -16 -35
-30 -40 -30 -20 0 -58 -26 -55 -37 3 -7 -8 -19 -24 -27 -15 -8 -44 -29 -63
-45 -45 -40 -97 -42 -58 -3 21 21 -89 20 -126 -1 -12 -6 -27 -10 -35 -8 -17 3
-71 -19 -71 -29 0 -5 6 -11 13 -13 6 -3 -3 -8 -20 -12 -18 -4 -46 -21 -63 -37
-25 -24 -29 -32 -19 -44 10 -12 13 -12 23 1 13 17 87 57 94 50 6 -6 -13 -26
-93 -104 -30 -30 -55 -60 -55 -67 0 -19 15 -17 31 3 16 18 78 47 86 39 3 -3
-14 -22 -37 -43 -151 -135 -230 -241 -230 -309 0 -19 -6 -50 -14 -69 -28 -65
-44 -151 -45 -237 -2 -82 -7 -107 -45 -193 -8 -16 -17 -64 -21 -105 -7 -76
-17 -125 -53 -260 -11 -41 -23 -99 -27 -129 l-7 -55 48 40 c89 73 195 104 234
69 34 -31 25 -43 -31 -43 -60 -1 -103 -24 -179 -96 -38 -36 -57 -64 -71 -104
-10 -30 -17 -57 -15 -60 9 -8 32 23 39 50 4 15 17 33 30 39 12 7 25 18 30 25
4 7 46 31 92 54 104 50 139 49 148 -4 3 -19 3 -52 0 -74 -4 -27 0 -47 12 -66
20 -31 45 -34 45 -6 0 11 5 20 10 20 6 0 10 -7 10 -15 0 -8 4 -15 9 -15 4 0
31 -18 60 -41 50 -40 71 -43 71 -11 0 13 7 10 29 -13 15 -17 33 -41 40 -53 17
-32 35 -27 68 16 42 55 76 134 67 157 -4 8 -1 21 5 29 6 7 9 20 6 27 -3 8 14
56 38 107 30 67 61 114 112 171 39 44 74 80 78 80 8 1 38 28 155 139 36 34 70
62 74 62 5 0 35 25 66 55 31 31 71 65 89 77 18 13 37 33 42 45 6 13 17 23 25
23 7 0 16 7 20 15 3 8 12 12 20 9 8 -3 23 -1 33 5 17 10 17 10 1 11 -24 0 -23
12 2 28 11 7 17 18 14 26 -3 9 9 30 30 52 35 36 36 36 61 20 14 -9 25 -22 25
-30 0 -7 15 -30 34 -50 30 -31 42 -36 83 -38 26 -2 69 1 96 5 38 7 47 5 47 -6
0 -8 14 -17 32 -21 27 -5 36 -2 50 16 13 18 20 20 29 11 9 -9 18 -9 32 -2 36
20 122 -12 178 -66 9 -8 26 -15 38 -15 40 0 122 -32 117 -45 -5 -15 24 -45 45
-45 8 0 35 -11 61 -25 37 -20 52 -23 72 -15 14 5 28 5 31 0 3 -4 0 -10 -7 -12
-6 -2 -9 -11 -6 -20 4 -10 25 -18 62 -22 30 -4 60 -14 66 -21 15 -18 60 -16
53 2 -6 15 34 18 57 3 13 -8 12 -11 -3 -23 -17 -12 -17 -14 -3 -26 9 -8 19
-11 23 -8 3 3 29 -7 59 -23 29 -17 66 -30 83 -30 16 0 33 -5 36 -10 3 -6 17
-7 31 -4 14 4 24 2 24 -5 0 -6 6 -11 14 -11 8 0 13 7 12 16 -2 25 17 27 42 4
29 -28 28 -43 -3 -38 -49 10 -21 -26 30 -37 17 -4 35 -14 42 -22 6 -8 17 -15
25 -17 28 -4 78 -41 78 -57 0 -10 10 -30 23 -46 25 -32 40 -55 63 -98 9 -16
27 -39 40 -50 16 -14 27 -38 34 -75 13 -70 6 -406 -9 -444 -32 -80 -69 -320
-50 -314 6 2 21 30 35 63 13 33 37 85 53 115 16 30 42 80 57 110 15 30 37 65
50 77 33 31 60 97 73 180 6 40 17 87 25 105 19 45 40 120 37 136 -1 6 5 12 14
12 33 0 55 60 55 152 0 48 5 99 12 115 13 32 19 221 6 229 -4 3 -8 17 -8 32 0
33 -19 64 -27 45 -18 -45 -25 43 -8 97 4 11 2 20 -4 20 -6 0 -15 19 -22 43 -6
23 -19 56 -29 72 -10 17 -23 48 -30 70 -7 22 -21 56 -31 75 -11 19 -19 38 -19
42 0 3 -16 34 -37 68 -20 34 -40 83 -44 111 -6 36 -15 56 -33 70 -14 11 -28
28 -31 39 -4 11 -13 20 -21 20 -8 0 -14 5 -14 10 0 6 -6 10 -14 10 -9 0 -12 7
-9 19 4 16 -2 22 -28 29 -29 7 -34 13 -31 35 3 26 -27 67 -49 67 -5 0 -7 5 -4
11 4 5 -6 22 -21 36 -22 20 -25 28 -14 31 8 3 16 0 18 -6 4 -13 22 -16 22 -4
0 16 -77 57 -115 62 -31 4 -43 11 -53 33 -9 19 -21 27 -38 27 -14 0 -27 7 -31
18 -4 9 -17 34 -30 54 -13 21 -23 46 -23 56 0 23 -30 52 -53 52 -9 0 -20 6
-24 14 -15 26 -86 77 -101 71 -27 -10 -88 35 -71 52 24 24 -61 83 -117 83 -33
0 -22 -16 16 -23 40 -9 38 -27 -2 -27 -69 0 -106 -24 -50 -33 15 -2 -9 -5 -53
-5 -44 -1 -87 3 -95 8 -13 9 -13 10 0 11 19 1 34 5 89 22 33 10 40 15 27 20
-10 4 -22 5 -27 2 -5 -4 -6 1 -3 10 6 14 -1 16 -47 14 -30 -2 -89 -2 -131 -1
-62 2 -78 5 -78 17 0 8 -4 15 -10 15 -5 0 -10 -7 -10 -16z m400 -95 c0 -5 -7
-9 -15 -9 -15 0 -20 12 -9 23 8 8 24 -1 24 -14z m-734 -9 c13 0 24 -4 24 -10
0 -5 -16 -10 -35 -10 -22 0 -35 5 -35 13 0 18 14 31 18 18 2 -6 15 -11 28 -11z
m217 -5 c38 -16 22 -26 -47 -28 -40 -2 -59 3 -74 16 -12 11 -26 16 -31 12 -6
-3 -11 -1 -11 4 0 15 126 12 163 -4z m522 -15 c3 -5 1 -10 -4 -10 -6 0 -11 5
-11 10 0 6 2 10 4 10 3 0 8 -4 11 -10z m-345 -20 c0 -5 7 -10 15 -10 8 0 15
-6 15 -13 0 -9 -18 -13 -64 -12 -69 0 -72 10 -13 32 41 15 47 15 47 3z m-385
-60 c-27 -12 -43 -12 -25 0 8 5 22 9 30 9 10 0 8 -3 -5 -9z m72 -6 c-3 -3 -12
-4 -19 -1 -8 3 -5 6 6 6 11 1 17 -2 13 -5z m93 -9 c-7 -8 -17 -15 -22 -15 -5
0 -16 7 -24 15 -14 13 -11 15 22 15 31 0 35 -2 24 -15z m170 -26 c0 -11 -50
-11 -105 -2 l-40 8 45 5 c54 6 100 1 100 -11z m160 1 c-16 -11 -40 -13 -40 -5
0 8 44 24 50 18 2 -2 -2 -8 -10 -13z m-1333 0 c15 0 27 -8 32 -22 5 -13 7 -25
6 -26 -8 -9 -64 11 -62 21 1 7 -10 12 -27 12 -16 1 -32 7 -34 14 -4 11 3 13
28 8 18 -4 43 -7 57 -7z m68 -10 c4 -6 10 -8 15 -5 4 3 10 -2 14 -10 3 -10 -1
-15 -12 -15 -19 0 -42 18 -42 32 0 11 18 10 25 -2z m395 -33 c-23 -24 -36 -17
-21 12 7 12 17 18 26 15 12 -5 11 -10 -5 -27z m820 29 c0 -3 -4 -8 -10 -11 -5
-3 -10 -1 -10 4 0 6 5 11 10 11 6 0 10 -2 10 -4z m-1 -39 c6 -8 8 -16 5 -20
-10 -9 -34 4 -34 19 0 18 14 18 29 1z m192 -2 c0 -5 -13 -12 -28 -13 -15 -2
-31 -9 -35 -15 -4 -7 -18 -8 -44 -1 -55 13 -54 31 2 32 26 1 49 4 52 7 10 9
53 1 53 -10z m229 -23 c0 -4 21 -14 48 -21 60 -18 62 -19 56 -34 -3 -8 -19
-11 -45 -9 -26 3 -46 -1 -57 -11 -27 -23 -62 -31 -62 -14 0 10 -7 13 -20 10
-11 -3 -20 0 -20 6 0 6 9 11 20 11 11 0 23 8 27 18 11 31 53 66 53 44z m-660
-42 c11 -7 12 -10 2 -10 -8 0 -29 -7 -48 -16 -37 -18 -84 -9 -92 17 -4 11 -2
12 9 2 19 -19 79 -17 79 2 0 17 27 20 50 5z m319 -14 c34 -19 9 -30 -34 -16
-19 6 -37 16 -40 21 -9 14 47 10 74 -5z m-1319 -47 c0 -6 -9 -22 -19 -35 -19
-25 -20 -25 -30 -5 -9 16 -7 23 11 35 26 19 38 20 38 5z m1730 -2 c0 -21 -12
-28 -27 -16 -19 16 -16 29 7 29 11 0 20 -6 20 -13z m-2030 -7 c0 -5 -10 -10
-22 -9 -22 0 -22 1 -3 9 11 5 21 9 23 9 1 1 2 -3 2 -9z m-207 -7 c8 -8 -40
-53 -57 -53 -7 0 -23 -9 -36 -20 -28 -25 -43 -26 -38 -2 2 9 21 26 43 37 22
11 44 26 48 33 9 13 30 16 40 5z m2295 -12 c10 -6 8 -10 -9 -14 -26 -7 -42 0
-34 14 8 11 26 11 43 0z m-1155 -80 c22 -24 24 -30 11 -35 -26 -10 -48 -6 -73
13 -28 22 -23 46 11 48 15 2 34 -8 51 -26z m93 -12 c2 -4 -8 -7 -24 -6 -16 1
-29 7 -29 13 0 12 44 6 53 -7z m1394 -74 c0 -10 -10 -15 -30 -15 -16 0 -30 4
-30 9 0 8 10 12 53 20 4 0 7 -6 7 -14z m-2910 -139 c0 -2 -7 -7 -16 -10 -8 -3
-12 -2 -9 4 6 10 25 14 25 6z m2865 -26 c-3 -5 -13 -10 -21 -10 -8 0 -12 5 -9
10 3 6 13 10 21 10 8 0 12 -4 9 -10z m160 -70 c3 -5 -1 -10 -9 -10 -8 0 -18 5
-21 10 -3 6 1 10 9 10 8 0 18 -4 21 -10z m67 -23 c-24 -11 -38 -5 -28 11 3 6
16 8 28 4 l22 -5 -22 -10z m-78 -39 c33 -34 38 -43 24 -46 -10 -2 -24 3 -30
10 -7 8 -26 28 -42 46 -47 51 -3 42 48 -10z m141 -128 c3 -5 2 -10 -4 -10 -5
0 -13 5 -16 10 -3 6 -2 10 4 10 5 0 13 -4 16 -10z m58 -36 c19 -7 23 -24 6
-24 -17 0 -49 20 -49 31 0 6 6 8 13 5 6 -3 20 -9 30 -12z m59 -136 c-11 -11
-32 -3 -32 12 0 12 34 18 39 7 2 -5 -1 -13 -7 -19z m-922 -338 c0 -5 -5 -10
-11 -10 -5 0 -7 5 -4 10 3 6 8 10 11 10 2 0 4 -4 4 -10z m110 -20 c0 -5 -4
-10 -10 -10 -5 0 -10 5 -10 10 0 6 5 10 10 10 6 0 10 -4 10 -10z"/>
<path d="M7360 10930 c0 -5 5 -10 10 -10 6 0 10 5 10 10 0 6 -4 10 -10 10 -5
0 -10 -4 -10 -10z"/>
<path d="M6150 11106 c0 -14 5 -26 10 -26 6 0 10 5 10 10 0 6 7 10 16 10 23 0
11 24 -14 28 -18 3 -22 -2 -22 -22z"/>
<path d="M6230 11110 c0 -12 35 -31 44 -23 8 9 -14 33 -30 33 -8 0 -14 -4 -14
-10z"/>
<path d="M5850 11094 c0 -17 22 -14 28 4 2 7 -3 12 -12 12 -9 0 -16 -7 -16
-16z"/>
<path d="M5796 11059 c-23 -28 -15 -34 14 -11 13 10 19 22 13 25 -5 3 -17 -3
-27 -14z"/>
<path d="M6135 11040 c3 -5 10 -10 16 -10 5 0 9 5 9 10 0 6 -7 10 -16 10 -8 0
-12 -4 -9 -10z"/>
<path d="M8230 10656 c0 -3 11 -21 24 -41 14 -20 27 -41 29 -48 2 -7 8 -9 12
-5 9 9 -35 90 -52 96 -7 2 -13 1 -13 -2z"/>
<path d="M8654 9794 c3 -9 6 -18 6 -20 0 -3 4 -3 10 1 11 7 2 35 -12 35 -6 0
-7 -7 -4 -16z"/>
<path d="M6777 9547 c4 -29 2 -37 -16 -47 -29 -15 -26 -63 4 -68 36 -7 106
-43 112 -57 3 -8 11 -15 19 -15 8 0 14 -5 14 -11 0 -7 -7 -8 -17 -3 -10 4 -79
9 -153 12 -102 3 -150 0 -197 -12 -33 -9 -75 -16 -91 -16 -17 0 -33 -4 -36 -9
-3 -4 -19 -11 -36 -14 -16 -4 -30 -10 -30 -14 0 -16 126 -14 255 3 138 17 275
15 314 -6 36 -19 17 -24 -82 -21 -81 2 -181 -5 -362 -25 -27 -4 -58 -6 -67 -6
-10 1 -22 -7 -28 -18 -8 -15 -5 -19 23 -23 17 -3 62 -12 98 -22 l67 -16 36 25
c51 34 127 49 175 35 l38 -11 -24 -24 c-23 -23 -30 -67 -15 -92 9 -14 176 -82
201 -82 11 0 12 -3 3 -12 -7 -7 -16 -8 -24 -2 -25 19 -265 65 -329 63 -34 -1
-34 -1 9 -12 54 -15 55 -31 2 -35 -22 -2 -40 -6 -40 -10 0 -4 17 -16 38 -27
20 -10 50 -28 65 -38 60 -41 315 -31 442 16 32 12 40 20 39 39 -1 13 4 26 10
30 17 12 61 9 74 -4 9 -9 15 -9 24 0 7 7 21 12 33 12 14 0 16 3 7 8 -7 5 -10
16 -6 25 5 13 2 16 -11 11 -13 -5 -16 -2 -14 11 5 25 95 73 125 67 24 -4 54
12 54 29 0 5 -11 15 -25 21 -14 6 -25 15 -25 20 0 5 -9 22 -21 37 -17 23 -19
32 -10 50 10 17 8 26 -6 46 -10 13 -27 27 -38 31 -24 8 -74 64 -75 84 0 11 -3
11 -12 2 -18 -18 -42 -15 -56 8 -7 11 -17 20 -22 20 -6 0 -19 9 -30 20 -11 11
-31 20 -45 20 -14 0 -37 7 -50 16 -17 11 -60 17 -159 21 l-135 6 6 -36z m609
-304 c-10 -10 -19 5 -10 18 6 11 8 11 12 0 2 -7 1 -15 -2 -18z"/>
<path d="M7907 9200 c-19 -18 -67 -30 -128 -30 -24 0 -50 -10 -79 -31 -41 -30
-44 -31 -70 -16 -15 9 -31 12 -39 7 -11 -6 -9 -10 7 -19 14 -8 21 -21 21 -43
0 -171 20 -277 52 -285 13 -4 19 -14 19 -34 0 -24 5 -29 35 -35 25 -4 39 -2
50 10 17 17 78 31 93 22 5 -3 7 -28 4 -56 -5 -51 14 -90 43 -90 7 0 20 -9 30
-20 26 -29 7 -24 -44 10 -24 17 -51 30 -60 30 -9 0 -33 11 -53 25 -84 57 -75
16 28 -118 46 -61 151 -149 173 -145 21 4 39 94 22 120 -16 26 -14 27 21 15
17 -7 40 -26 50 -44 42 -70 100 -79 97 -14 -1 20 4 50 11 66 6 17 14 68 17
115 5 82 13 102 46 113 5 1 11 15 12 30 2 16 8 33 13 40 6 7 12 47 13 90 l3
79 -45 42 c-25 23 -48 50 -52 59 -4 10 -17 21 -31 27 -13 5 -27 14 -31 19 -3
6 -14 11 -23 11 -10 0 -34 11 -54 25 -24 16 -51 25 -75 25 -22 0 -43 4 -48 9
-6 5 -17 2 -28 -9z m151 -329 c9 -5 26 -13 37 -17 15 -5 16 -8 5 -11 -8 -2
-33 5 -55 16 -22 11 -32 20 -22 21 9 0 25 -4 35 -9z m-29 -51 c37 -18 81 -63
81 -81 0 -4 -25 5 -56 22 -31 16 -67 29 -81 29 -13 0 -22 4 -18 9 3 6 -10 13
-30 17 -19 3 -32 10 -29 15 10 16 94 9 133 -11z m21 -233 c0 -28 -28 -47 -55
-36 -11 4 -15 8 -9 8 6 1 17 12 24 26 17 31 40 33 40 2z"/>
<path d="M5173 8968 c-64 -25 -147 -100 -140 -127 2 -10 1 -36 -2 -57 -8 -42
3 -80 26 -88 9 -4 34 15 65 49 68 75 118 100 88 46 -8 -17 -8 -21 3 -21 21 0
50 112 42 160 -9 56 -21 61 -82 38z"/>
<path d="M4736 8839 c-9 -28 -16 -60 -16 -71 0 -24 -59 -148 -70 -148 -4 0
-11 -16 -14 -35 -4 -20 -20 -62 -37 -93 -21 -40 -28 -65 -23 -84 4 -19 0 -33
-10 -44 -18 -17 -23 -119 -6 -129 5 -3 12 -27 16 -54 5 -38 13 -54 40 -76 31
-26 34 -33 34 -81 0 -74 33 -140 73 -148 17 -3 32 -4 34 -2 2 2 -6 28 -18 57
-28 71 -23 192 11 257 12 23 26 45 31 48 5 3 9 13 9 23 0 10 9 26 21 37 11 10
31 41 44 68 l24 49 -35 101 c-31 90 -54 197 -71 324 -3 23 -9 44 -13 47 -4 2
-15 -18 -24 -46z"/>
<path d="M5308 8424 c-3 -5 -10 -25 -17 -44 -18 -56 -77 -84 -173 -82 -81 2
-99 -9 -53 -30 14 -6 28 -22 31 -35 4 -13 10 -23 15 -23 5 0 9 -7 9 -15 0 -8
5 -15 10 -15 6 0 10 -6 10 -14 0 -20 27 -38 47 -32 25 8 83 59 83 73 0 6 4 13
8 15 24 10 52 79 52 129 0 52 -12 90 -22 73z"/>
<path d="M7202 8404 c-30 -20 -29 -54 1 -54 39 0 170 -31 235 -56 35 -13 68
-22 73 -19 5 4 9 19 9 35 0 25 -9 34 -68 70 -64 38 -73 40 -148 40 -56 0 -86
-5 -102 -16z"/>
<path d="M7122 8343 c5 -26 78 -72 115 -73 38 0 52 16 22 25 -12 4 -42 20 -67
36 -52 33 -75 37 -70 12z"/>
<path d="M7578 8285 c-20 -13 -38 -30 -40 -37 -5 -13 -66 -15 -111 -3 -22 6
-32 3 -48 -14 -11 -11 -29 -21 -41 -21 -18 0 -17 -4 13 -39 19 -21 56 -51 82
-66 40 -22 56 -26 91 -21 24 4 61 3 83 -2 39 -9 43 -7 97 35 31 25 56 53 56
62 0 24 -37 71 -56 71 -8 0 -23 13 -32 30 -21 37 -45 38 -94 5z"/>
<path d="M7095 8066 c-27 -7 -72 -22 -99 -34 -68 -31 -92 -29 -105 9 -6 17
-14 28 -19 25 -5 -3 -26 -6 -46 -8 -21 -1 -40 -8 -43 -15 -6 -14 -59 -43 -80
-43 -7 0 -13 -5 -13 -11 0 -13 -69 -79 -82 -79 -5 0 -14 -11 -20 -25 -6 -14
-19 -25 -29 -25 -10 0 -31 -12 -48 -26 -21 -18 -37 -23 -51 -19 -17 5 -21 3
-18 -11 2 -11 -5 -20 -19 -23 -13 -3 -32 -14 -44 -25 -22 -18 -23 -18 -36 0
-12 16 -17 17 -48 5 -19 -7 -39 -10 -43 -7 -5 3 -18 -1 -28 -9 -23 -17 -56
-19 -71 -4 -6 6 -21 8 -34 4 -13 -5 -24 -6 -25 -4 0 2 -15 -9 -34 -24 -25 -22
-39 -27 -59 -22 -14 4 -23 3 -18 -1 4 -4 -7 -14 -24 -21 -23 -9 -36 -10 -51
-2 -12 6 -35 9 -52 6 -17 -3 -49 1 -71 9 -22 7 -55 14 -72 14 -30 0 -33 3 -33
30 0 33 -23 42 -34 14 -4 -11 -14 -15 -32 -11 -14 2 -28 -1 -30 -7 -6 -15 -80
-12 -99 4 -13 11 -15 8 -15 -15 0 -19 -4 -26 -14 -22 -20 8 -38 -16 -30 -38 6
-16 3 -17 -29 -11 -33 6 -37 5 -37 -15 0 -12 8 -28 18 -36 16 -13 15 -14 -5
-10 -20 4 -22 2 -17 -17 5 -21 2 -23 -37 -22 -33 1 -42 -3 -45 -17 -3 -20 21
-47 42 -47 8 0 13 -3 12 -7 -4 -17 14 -53 28 -53 8 0 14 -8 14 -17 1 -22 23
-53 39 -53 7 0 11 -10 9 -22 -2 -13 2 -22 8 -21 14 2 40 -87 27 -96 -5 -3 -13
-24 -18 -46 -6 -24 -16 -40 -25 -41 -38 -1 -136 -17 -145 -22 -5 -4 6 -9 25
-12 33 -5 35 -8 35 -41 0 -26 8 -42 30 -64 19 -18 23 -26 12 -22 -10 4 -24 7
-31 7 -7 0 -22 9 -34 20 -12 12 -22 16 -22 9 0 -11 -25 -8 -64 7 -10 4 -16 1
-16 -9 0 -15 -37 -30 -52 -21 -4 3 -8 12 -8 20 0 25 -28 46 -50 39 -15 -5 -20
-2 -20 11 0 14 -2 14 -16 3 -13 -10 -17 -10 -25 2 -5 8 -9 22 -9 32 0 9 -6 17
-13 17 -7 0 -24 18 -37 40 -14 22 -29 40 -35 40 -5 0 -21 19 -35 42 -104 172
-224 337 -237 325 -3 -3 17 -38 43 -76 43 -63 77 -119 114 -186 5 -11 19 -33
30 -50 11 -16 22 -37 26 -45 3 -8 12 -26 20 -40 8 -14 31 -58 51 -98 28 -57
33 -76 23 -82 -9 -5 -4 -12 16 -21 19 -9 30 -23 31 -39 l3 -25 -10 24 c-6 13
-13 21 -17 17 -7 -7 44 -131 80 -196 8 -14 40 -79 72 -145 32 -66 66 -132 77
-147 10 -14 18 -31 18 -38 0 -7 8 -24 19 -38 10 -15 34 -56 53 -92 20 -36 60
-111 90 -166 58 -108 92 -184 84 -191 -2 -2 -30 42 -61 99 -31 57 -65 114 -74
128 -9 14 -32 54 -50 90 -18 36 -39 72 -46 80 -27 33 -149 258 -259 478 -65
127 -121 232 -127 232 -5 0 -9 12 -9 28 0 19 -3 23 -9 13 -7 -10 -12 -10 -30
5 -11 10 -21 26 -21 36 0 10 -7 18 -15 18 -8 0 -15 3 -15 8 0 4 -10 18 -23 32
-13 14 -37 45 -54 70 -17 25 -43 59 -58 75 -14 17 -38 46 -53 65 -14 19 -41
52 -59 72 -18 21 -44 55 -58 78 -30 48 -64 53 -113 16 -24 -17 -46 -24 -82
-24 -51 0 -92 -19 -225 -103 -47 -29 -77 -40 -140 -49 -44 -7 -105 -21 -135
-32 -45 -17 -90 -22 -255 -27 -257 -9 -267 -14 -386 -178 -47 -64 -73 -90
-122 -119 -134 -80 -245 -153 -287 -189 -19 -17 -55 -44 -80 -60 -102 -65
-482 -482 -610 -669 -8 -12 -31 -42 -51 -67 -20 -24 -53 -71 -75 -104 -21 -33
-62 -88 -90 -123 -29 -35 -67 -91 -84 -125 -18 -34 -45 -78 -59 -97 -14 -19
-35 -48 -47 -65 -123 -178 -160 -233 -169 -247 -5 -9 -47 -69 -91 -134 -230
-336 -330 -536 -517 -1029 -16 -44 -34 -89 -38 -100 -5 -11 -23 -65 -39 -120
-17 -55 -39 -125 -49 -155 -50 -152 -202 -743 -241 -935 -11 -55 -28 -118 -39
-140 -10 -22 -31 -79 -46 -128 -22 -69 -26 -100 -23 -150 4 -51 -2 -87 -32
-197 -21 -74 -43 -159 -50 -189 -7 -30 -25 -82 -40 -115 -34 -75 -54 -147 -70
-246 -14 -84 -29 -121 -69 -165 -35 -38 -47 -85 -56 -205 -5 -59 -16 -120 -31
-161 l-24 -66 0 -512 0 -511 2660 0 c2522 0 2660 1 2669 18 10 16 12 16 24 1
9 -13 27 -16 72 -14 90 4 95 4 95 14 0 5 -8 12 -17 14 -17 4 -17 5 0 6 22 1
22 28 0 33 -9 2 -17 14 -18 28 -1 14 -6 33 -10 44 -7 16 -6 17 13 7 20 -11 27
-27 23 -58 -3 -19 16 -15 24 4 6 17 7 17 19 0 11 -14 15 -15 25 -3 12 15 12
74 -1 82 -4 3 -8 14 -8 25 0 26 -16 24 -25 -3 l-7 -23 -7 24 c-3 13 -15 28
-26 32 -14 5 -15 8 -5 8 9 1 21 -4 28 -11 9 -9 13 -7 18 6 12 30 -4 107 -61
306 -31 107 -58 215 -61 240 -4 39 -59 246 -98 370 -23 70 -41 169 -33 177 15
15 37 -25 60 -112 42 -154 117 -409 128 -435 14 -30 69 -219 105 -355 15 -55
32 -103 39 -108 7 -4 16 -25 20 -47 8 -45 24 -46 19 -1 -4 34 18 48 37 24 11
-13 10 -17 -4 -28 -13 -9 -17 -27 -17 -74 0 -58 13 -81 26 -46 9 22 23 18 17
-5 -7 -25 21 -37 41 -17 20 19 147 22 140 3 -3 -7 2 -16 10 -19 18 -7 31 8 16
18 -5 3 -10 18 -10 32 0 21 2 24 15 13 13 -11 15 -8 15 14 0 28 -9 33 -29 13
-10 -10 -12 -8 -9 8 2 12 13 21 25 23 17 3 24 -3 30 -25 9 -33 10 -40 12 -53
0 -5 8 -10 16 -10 22 0 18 -10 -15 -40 l-31 -28 27 -5 c33 -6 54 12 54 45 0
13 5 29 12 36 9 9 5 12 -20 12 -18 0 -32 3 -32 8 1 13 73 53 86 48 8 -3 14 1
14 9 0 8 6 15 14 15 8 0 63 25 122 55 59 30 110 52 113 50 8 -9 0 -110 -10
-113 -28 -10 -41 -37 -36 -74 5 -37 -5 -52 -17 -23 -4 10 -16 13 -46 10 -22
-2 -40 1 -40 6 0 5 -8 9 -17 8 -15 0 -14 -3 5 -16 32 -22 29 -45 -4 -37 -17 4
-29 2 -34 -6 -9 -15 18 -50 34 -44 7 3 22 -7 35 -20 l24 -25 18 23 c11 13 19
29 19 35 0 6 6 11 14 11 9 0 13 -12 12 -38 l-1 -37 2957 -3 2957 -2 148 73
c81 40 214 103 296 141 l147 69 0 1374 c0 960 -3 1372 -11 1368 -15 -10 -48
33 -55 74 -4 20 -9 40 -11 44 -8 13 -40 -22 -47 -49 -4 -15 -14 -24 -26 -24
-10 0 -21 -4 -24 -9 -3 -5 -15 -7 -26 -4 -14 4 -21 -1 -26 -21 -8 -32 -44 -35
-81 -6 -14 11 -34 20 -43 20 -10 0 -23 7 -30 15 -18 21 -37 19 -51 -7 -7 -13
-12 -24 -11 -25 7 -10 -2 -11 -23 -3 -32 12 -125 -8 -125 -27 0 -7 -11 -18
-25 -23 -16 -6 -23 -14 -19 -25 5 -11 2 -14 -10 -9 -9 3 -24 3 -33 -1 -17 -7
-184 -17 -250 -15 -10 0 -49 -1 -88 -1 -38 -1 -80 1 -92 5 -17 5 -23 3 -23 -7
0 -19 -34 -30 -92 -28 -26 0 -50 -4 -53 -9 -3 -6 -1 -10 4 -10 6 0 11 -13 11
-28 0 -25 -3 -28 -27 -25 -22 4 -30 -1 -38 -19 -13 -31 -55 -35 -80 -8 -21 24
-50 26 -59 5 -3 -8 -8 -37 -12 -65 -4 -27 -10 -50 -15 -50 -5 0 -9 6 -9 13 0
6 -5 61 -10 121 -6 60 -11 125 -12 143 -1 19 -6 33 -14 33 -14 0 -29 -54 -19
-70 4 -6 4 -32 0 -57 -5 -33 -12 -47 -26 -50 -10 -3 -19 -10 -19 -15 0 -5 -21
-9 -47 -8 -87 4 -113 1 -113 -15 0 -8 -8 -15 -18 -15 -10 0 -22 -3 -26 -7 -4
-5 -17 -9 -29 -10 -54 -6 -98 -16 -102 -23 -3 -5 -22 -6 -43 -3 -25 3 -50 0
-69 -10 -23 -12 -33 -13 -42 -4 -9 9 -14 9 -19 1 -4 -6 -17 -14 -29 -18 -38
-12 -27 -33 20 -40 148 -22 424 -73 436 -80 6 -4 87 -10 179 -13 290 -8 291
-8 362 22 37 15 98 30 141 35 140 15 319 107 441 226 29 28 181 93 220 94 30
0 48 -40 48 -108 0 -55 -3 -66 -26 -87 -15 -14 -33 -25 -40 -25 -7 0 -19 -6
-26 -12 -27 -25 -58 -39 -58 -26 0 22 -13 -1 -16 -29 -4 -42 -26 -113 -35
-119 -13 -7 -11 -44 2 -44 9 0 7 -16 -8 -57 -3 -7 10 -14 34 -18 69 -11 83
-15 83 -24 0 -5 -19 -7 -42 -4 -65 7 -405 52 -473 63 -94 15 -185 27 -385 54
-256 34 -262 35 -380 52 -58 8 -170 23 -250 34 -80 11 -188 26 -240 34 -52 7
-122 17 -155 21 -33 3 -121 15 -195 25 -74 10 -223 30 -330 45 -107 14 -262
35 -345 46 -82 11 -195 26 -250 34 -180 26 -529 73 -640 85 -44 6 -102 14
-130 20 -27 6 -104 17 -170 25 -66 8 -153 19 -192 25 -147 20 -409 55 -798
105 -66 9 -163 23 -215 31 -272 43 -373 54 -455 48 -80 -6 -94 -15 -96 -58 -1
-24 -3 -26 -6 -8 -2 12 -8 20 -13 17 -4 -3 -13 2 -20 10 -20 24 -38 19 -170
-46 -299 -146 -448 -217 -490 -234 -25 -10 -52 -25 -61 -32 -8 -7 -18 -13 -22
-13 -3 0 -41 -17 -84 -37 -43 -21 -81 -39 -85 -41 -5 -2 -8 9 -9 25 -1 29 -3
25 -13 -18 -6 -28 -52 -53 -118 -65 -23 -4 -43 -15 -52 -29 -9 -13 -30 -26
-48 -30 -18 -4 -40 -13 -48 -21 -9 -7 -34 -20 -55 -28 -40 -14 -127 -55 -175
-82 -14 -7 -33 -14 -42 -14 -9 0 -20 -4 -23 -10 -9 -15 -25 -12 -25 5 0 8 4
15 9 15 5 0 11 12 14 28 6 30 46 117 82 177 13 22 28 49 33 60 6 12 17 27 26
34 17 14 21 31 8 31 -16 0 -143 -183 -170 -244 -7 -16 -15 -26 -19 -23 -3 4
15 47 40 96 37 74 45 97 40 126 -3 19 -8 35 -12 35 -3 0 -18 -19 -33 -43 -15
-23 -37 -52 -50 -63 -13 -11 -33 -33 -46 -48 -12 -14 -36 -29 -52 -33 -23 -4
-30 -11 -30 -29 0 -27 -17 -31 -46 -9 -28 21 -42 18 -58 -12 -16 -30 -18 -27
-20 27 -1 24 -6 36 -18 38 -15 3 -17 -2 -12 -26 l6 -29 -96 1 c-53 1 -96 4
-96 7 0 4 7 12 15 19 13 11 13 15 3 21 -24 16 -38 9 -38 -17 0 -30 -20 -28
-35 3 -6 11 -15 18 -22 16 -6 -2 -22 10 -34 27 -13 17 -29 28 -36 26 -8 -3
-13 2 -13 14 0 15 -7 20 -25 20 -29 0 -71 36 -52 44 7 2 4 5 -5 5 -12 1 -18 9
-18 26 0 35 -28 33 -32 -2 l-3 -28 -15 33 c-8 18 -20 30 -27 28 -6 -3 -17 2
-23 10 -9 10 -9 14 -1 14 6 0 11 6 11 14 0 19 -23 33 -28 18 -5 -16 -47 -15
-61 2 -6 7 -9 20 -6 27 3 8 0 21 -5 29 -9 13 -11 13 -20 0 -6 -10 -6 -16 0
-18 18 -6 10 -22 -10 -22 -11 0 -20 7 -20 15 0 8 -7 15 -15 15 -8 0 -15 7 -15
15 0 9 6 12 16 8 12 -4 15 -2 12 8 -3 9 -23 15 -54 17 -66 4 -125 31 -118 55
4 11 0 17 -10 17 -9 0 -16 -5 -16 -12 0 -6 -3 -8 -7 -4 -5 4 -8 13 -8 19 0 7
-15 16 -33 22 -17 5 -32 14 -32 21 0 7 -7 14 -15 18 -8 3 -15 12 -15 21 0 20
-26 19 -34 -1 -8 -21 -23 -9 -31 25 -4 18 -12 28 -22 27 -10 -1 -19 11 -25 33
-7 26 -13 32 -28 28 -11 -3 -24 1 -31 9 -8 10 -8 14 0 14 6 0 11 -5 11 -11 0
-5 4 -7 10 -4 18 11 11 25 -22 45 -18 11 -29 20 -24 20 12 0 -34 35 -56 43
-10 3 -18 15 -18 24 0 12 -13 24 -32 32 l-33 12 25 11 c21 9 22 12 7 15 -29 7
-73 33 -57 33 12 1 12 3 -2 14 -10 7 -18 20 -18 29 0 16 -26 31 -60 36 -5 0
-10 14 -10 30 0 16 -7 36 -15 45 -8 8 -15 22 -15 32 0 33 -35 124 -48 124 -20
0 -34 49 -35 125 0 59 2 71 17 73 13 3 14 7 6 17 -12 14 3 49 46 110 12 17 23
35 25 40 6 16 95 95 106 95 5 0 18 8 29 18 18 17 152 82 168 82 5 0 22 6 39
14 117 53 297 110 397 126 30 4 129 20 220 35 202 32 555 45 691 26 125 -18
243 -48 307 -77 79 -37 173 -105 207 -151 16 -21 32 -40 35 -43 4 -3 31 -39
60 -80 95 -135 114 -158 299 -369 46 -53 99 -115 118 -138 l34 -42 -25 -37
c-23 -34 -25 -44 -20 -108 10 -124 -19 -160 -153 -189 -63 -13 -74 -6 -43 28
13 14 21 27 18 30 -3 3 -31 -4 -62 -16 -56 -22 -57 -23 -52 -54 6 -28 3 -32
-30 -44 -31 -11 -38 -11 -56 5 -19 18 -21 18 -89 -19 -79 -42 -95 -45 -104
-17 -3 11 -13 20 -20 20 -22 0 3 -59 42 -100 l33 -35 48 51 c57 62 73 69 118
48 31 -15 36 -15 52 -1 23 20 129 72 167 82 17 4 59 7 95 6 67 -1 152 20 131
33 -6 4 -8 13 -4 19 4 7 10 34 13 61 3 27 10 51 17 53 14 5 43 -48 54 -97 4
-19 12 -48 18 -65 6 -16 16 -49 21 -72 6 -24 16 -43 21 -43 7 0 8 7 4 18 -4 9
-14 44 -23 77 -31 124 -46 170 -59 186 -21 25 -15 31 12 13 13 -9 50 -53 81
-98 55 -82 57 -83 137 -116 45 -19 92 -40 104 -48 15 -9 36 -11 70 -7 68 9
183 32 218 44 34 11 213 37 320 46 39 3 77 8 85 10 17 4 122 12 310 23 69 4
262 7 430 7 l305 0 3 -57 c2 -32 8 -58 13 -58 20 0 49 21 49 35 0 19 16 19 24
0 6 -16 100 -22 110 -7 3 4 1 26 -4 48 -15 73 -22 174 -11 174 5 0 13 -21 17
-47 11 -76 14 -79 83 -77 41 1 65 6 77 18 9 9 22 15 29 12 35 -13 21 130 -34
364 -30 122 -96 333 -132 418 -11 24 -19 51 -19 61 0 9 -9 26 -19 38 -24 25
-45 66 -72 137 -12 34 -26 56 -35 56 -9 0 -12 -5 -8 -11 4 -7 1 -10 -7 -7 -8
3 -14 13 -15 24 -1 22 -14 93 -20 113 -3 10 -7 11 -19 1 -17 -14 -50 -6 -40
10 3 5 17 10 30 10 22 0 40 22 28 34 -3 3 -19 3 -37 0 -29 -5 -30 -5 -12 10
11 9 25 16 32 16 9 0 12 16 10 53 -2 28 -4 67 -5 86 -1 34 0 34 -48 14 -7 -3
-13 2 -13 11 0 11 9 16 30 16 26 0 30 4 30 26 0 21 -4 25 -17 19 -28 -11 -31
-11 -33 0 0 6 9 12 22 15 22 6 23 10 21 90 -2 47 -2 111 -2 143 0 56 -1 57
-28 57 -26 1 -27 1 -9 15 10 8 24 16 30 18 8 3 8 10 -1 24 -6 11 -8 25 -3 33
5 8 4 22 -1 33 -6 10 -8 25 -5 33 8 20 -4 44 -21 44 -8 0 -11 5 -8 10 4 6 11
8 16 5 15 -10 10 22 -6 35 -11 9 -12 17 -4 32 8 15 7 24 -5 37 -13 14 -13 20
-3 30 9 11 9 14 -1 18 -9 3 -11 16 -6 39 5 30 4 34 -15 34 -22 0 -28 14 -11
25 17 11 11 37 -7 33 -15 -3 -18 -13 -16 -56 3 -53 -5 -62 -36 -43 -9 6 -12
18 -8 32 3 13 1 29 -5 36 -7 9 -7 17 1 27 8 10 9 16 1 21 -5 3 -10 18 -10 33
0 44 -5 76 -13 88 -4 7 -7 23 -7 35 1 34 -5 62 -14 77 -4 7 -5 21 -1 31 3 11
1 22 -4 25 -6 4 -7 14 -4 23 4 10 -1 21 -13 30 -18 13 -18 15 -1 24 26 15 21
32 -8 27 -14 -3 -25 -2 -25 3 0 10 41 34 53 31 4 -1 7 2 7 8 0 9 -28 15 -57
11 -18 -2 -16 7 4 27 16 16 15 17 -5 20 -24 4 -29 21 -10 40 9 9 8 12 -6 12
-19 0 -45 26 -46 46 0 6 -8 29 -17 50 -9 22 -18 44 -19 51 -1 7 -14 38 -29 70
-63 134 -88 183 -96 183 -5 0 -9 7 -9 15 0 8 -4 15 -10 15 -5 0 -10 7 -10 15
0 8 -4 15 -10 15 -20 0 -9 40 15 56 23 15 29 15 70 1 44 -14 46 -14 57 6 13
25 3 134 -15 155 -6 8 -28 22 -47 30 -37 15 -70 40 -70 53 0 4 12 9 28 11 25
3 24 5 -25 31 -35 18 -53 34 -53 46 0 18 -29 51 -46 51 -16 0 -35 -40 -29 -60
3 -10 19 -23 36 -30 41 -17 31 -35 -20 -33 -26 1 -41 -2 -41 -10 0 -7 -8 -19
-18 -28 -9 -8 -26 -27 -37 -43 -17 -22 -26 -26 -47 -21 -17 4 -30 17 -37 36
-12 35 -87 141 -134 189 -87 90 -147 124 -242 135 -60 8 -65 3 -46 -49 8 -19
6 -30 -9 -49 -11 -13 -16 -28 -12 -32 4 -4 -26 -5 -66 -3 -54 4 -76 10 -86 23
-9 13 -21 16 -41 13 -15 -3 -43 1 -61 8 -19 8 -34 11 -34 7 -1 -5 -9 2 -20 15
-14 16 -37 26 -82 33 -34 6 -63 11 -63 12 -7 19 -63 80 -80 87 -15 6 -26 20
-30 42 -4 18 -12 39 -18 47 -8 10 -7 16 3 25 11 8 14 26 12 64 -3 55 5 65 26
31 8 -13 21 -19 35 -17 18 2 21 8 19 33 -2 17 -9 36 -15 43 -7 10 -5 17 11 28
13 8 22 26 22 40 0 13 4 24 9 24 10 0 9 55 -2 66 -4 4 -7 11 -7 15 0 15 84 69
108 69 12 0 40 11 60 25 41 28 74 31 123 11 19 -7 65 -19 103 -25 39 -7 93
-23 120 -36 28 -13 87 -37 131 -54 133 -49 189 -71 215 -85 14 -7 52 -23 86
-35 43 -16 65 -30 77 -51 10 -16 27 -32 40 -35 32 -10 107 -94 114 -127 3 -16
0 -34 -7 -43 -10 -12 -10 -19 -2 -27 6 -6 7 -19 2 -33 -5 -12 -10 -43 -11 -68
-3 -42 0 -50 31 -77 28 -25 35 -28 42 -15 5 8 15 15 23 15 8 0 18 7 23 16 8
15 19 10 80 -32 39 -27 127 -97 197 -156 122 -104 128 -108 174 -108 50 0 112
27 178 77 40 31 41 31 207 -47 55 -26 139 -64 186 -85 97 -44 116 -55 261
-162 58 -43 188 -138 290 -212 101 -74 216 -158 254 -186 39 -28 230 -168 425
-310 195 -142 405 -295 465 -340 61 -45 130 -95 155 -113 49 -34 357 -258 460
-335 107 -80 321 -236 380 -277 30 -21 94 -72 142 -113 97 -84 233 -187 247
-187 5 0 46 -30 91 -67 65 -52 86 -64 99 -56 23 14 61 73 60 92 0 11 -4 9 -11
-6 -6 -13 -19 -23 -30 -23 -22 0 -23 13 -3 30 17 14 20 40 5 40 -5 0 -10 -7
-10 -15 0 -8 -9 -19 -20 -25 -16 -9 -20 -8 -20 5 0 9 5 25 10 35 7 13 7 21 0
25 -5 3 -10 -3 -10 -13 0 -24 -29 -37 -36 -17 -3 8 -2 20 2 27 5 10 4 11 -7 0
-20 -19 -43 -15 -34 6 4 9 10 26 13 37 4 17 2 16 -16 -5 -21 -25 -21 -25 -36
-5 -18 23 -19 34 -7 54 6 9 5 18 -3 25 -7 6 -25 23 -42 37 -16 15 -40 30 -54
34 -17 5 -7 -7 30 -34 30 -23 56 -46 58 -51 14 -41 -102 8 -129 55 -17 28
-193 155 -216 155 -4 0 -28 16 -52 35 -24 19 -47 35 -50 35 -3 0 -18 10 -32
23 -14 12 -32 27 -41 32 -9 6 -46 31 -83 58 -36 26 -70 47 -75 47 -6 0 -10 5
-10 10 0 6 -7 10 -15 10 -8 0 -15 7 -15 15 0 13 -12 19 -25 13 -2 -2 -12 7
-20 19 -10 14 -21 20 -32 16 -10 -4 -14 -2 -10 4 8 13 -17 34 -63 56 -20 9
-52 32 -73 52 -20 19 -58 45 -84 56 -36 15 -44 22 -33 29 12 8 11 10 -6 10
-12 0 -33 9 -47 20 -14 11 -31 20 -37 20 -7 0 -10 7 -6 16 3 9 2 12 -5 9 -5
-4 -22 1 -36 10 -21 14 -23 19 -12 27 10 7 8 8 -8 5 -13 -3 -23 -1 -23 3 0 5
-15 16 -34 25 -19 9 -42 28 -51 41 -8 13 -21 24 -28 24 -7 0 -17 10 -22 22 -6
11 -26 29 -45 40 -19 10 -40 25 -46 34 -9 12 -13 12 -17 2 -3 -9 -7 -7 -13 7
-8 21 -33 44 -48 45 -5 0 -3 -7 4 -15 9 -10 9 -15 1 -15 -10 0 -15 13 -12 32
0 4 -23 26 -53 48 -36 27 -59 38 -72 34 -16 -5 -16 -4 -4 5 8 6 11 11 5 12
-24 3 -31 5 -52 12 -12 5 -20 13 -17 20 4 13 -64 71 -186 157 -41 29 -142 104
-225 165 -82 61 -163 120 -180 130 -16 11 -37 26 -46 34 -9 9 -41 34 -73 56
-64 46 -96 69 -295 215 -238 175 -245 180 -253 180 -21 0 0 -20 82 -80 49 -36
90 -69 90 -74 0 -5 -8 -2 -17 5 -23 18 -26 21 -106 80 -40 29 -66 56 -65 65 2
10 -10 20 -32 28 -35 12 -56 26 -198 131 -37 28 -93 68 -124 89 -57 39 -67 53
-48 72 5 5 5 15 1 23 -14 23 -51 -9 -77 -67 -28 -62 -30 -98 -7 -124 9 -10 13
-21 10 -24 -13 -13 -58 8 -98 46 -39 37 -41 42 -37 85 4 31 20 67 54 118 88
136 178 153 262 50 38 -45 42 -41 67 59 14 58 15 75 4 101 -17 45 -39 67 -64
67 -25 0 -89 56 -80 70 4 6 -2 13 -12 17 -10 3 -26 13 -35 21 -12 10 -18 11
-18 4 0 -7 -5 -12 -11 -12 -6 0 -8 7 -5 16 3 8 2 13 -3 9 -5 -3 -15 1 -23 8
-7 8 -20 17 -28 20 -8 4 -1 5 15 1 34 -6 34 -6 -50 59 -33 26 -74 58 -91 72
-33 27 -124 55 -177 55 -67 0 -229 -74 -266 -120 -31 -40 -66 -39 -112 3 -28
25 -38 42 -42 75 -10 80 -132 192 -208 192 -12 0 -30 7 -40 16 -9 8 -43 19
-75 24 -33 5 -77 14 -99 19 -52 14 -128 12 -190 -3z m160 -171 c12 -7 46 -18
76 -24 44 -9 66 -21 107 -60 28 -27 49 -51 45 -55 -23 -22 -157 10 -178 44 -3
5 -21 10 -38 10 -43 1 -113 33 -127 59 -7 14 -21 21 -40 21 -28 0 -45 12 -33
23 10 10 167 -5 188 -18z m-765 -239 c0 -3 -4 -8 -10 -11 -5 -3 -10 -1 -10 4
0 6 5 11 10 11 6 0 10 -2 10 -4z m-92 -118 c-7 -19 -38 -22 -38 -4 0 10 9 16
21 16 12 0 19 -5 17 -12z m-1026 -469 c4 -46 0 -53 -19 -38 -10 9 -11 15 -1
26 10 12 9 17 -5 25 -19 10 -14 28 8 28 8 0 14 -15 17 -41z m64 20 c3 -6 1
-16 -5 -22 -9 -9 -14 -8 -21 3 -9 15 -4 30 10 30 5 0 12 -5 16 -11z m1830
-176 c15 -5 20 -23 7 -23 -16 1 -44 50 -36 63 5 8 9 5 11 -11 2 -13 10 -26 18
-29z m344 17 c0 -5 -2 -10 -4 -10 -3 0 -8 5 -11 10 -3 6 -1 10 4 10 6 0 11 -4
11 -10z m184 -71 c19 -17 18 -18 -35 -12 -44 4 -63 1 -97 -16 -54 -28 -54 -11
1 28 34 24 49 29 77 24 19 -3 44 -14 54 -24z m-438 -5 c4 -15 14 -24 25 -24
10 0 19 -5 19 -10 0 -6 -11 -8 -25 -6 -13 3 -27 0 -30 -5 -12 -18 -32 -8 -48
25 -8 19 -14 36 -12 37 2 2 17 4 34 5 25 1 33 -4 37 -22z m-2296 -15 c0 -5 -4
-9 -10 -9 -5 0 -10 7 -10 16 0 8 5 12 10 9 6 -3 10 -10 10 -16z m2722 -29 c20
-6 39 -17 42 -25 6 -16 -9 -29 -23 -21 -5 4 -37 -3 -70 -13 -59 -18 -62 -18
-71 -1 -14 27 -14 28 28 49 44 24 46 24 94 11z m-394 -57 c-1 -4 2 -19 6 -31
9 -27 68 -56 209 -103 127 -42 137 -49 183 -126 79 -134 151 -340 205 -592 15
-74 31 -141 34 -149 9 -25 53 -334 59 -422 22 -299 30 -566 18 -574 -12 -7
-40 30 -71 96 -13 28 -47 68 -84 101 -56 49 -64 62 -85 128 -63 197 -97 283
-135 341 -77 117 -98 136 -189 173 -82 33 -244 110 -328 156 -30 17 -118 62
-195 100 -77 39 -175 88 -218 110 -43 21 -85 39 -94 39 -8 0 -27 9 -43 20 -15
11 -39 24 -54 30 -29 11 -32 24 -11 60 17 29 19 54 5 45 -17 -10 1 25 26 53
13 14 24 33 24 43 0 10 4 21 10 24 5 3 17 31 26 61 8 29 18 54 22 54 4 0 20
19 36 43 55 82 150 140 336 206 30 10 101 38 158 62 85 35 103 46 99 61 -3 11
0 18 9 18 8 0 14 6 14 12 0 7 7 3 15 -9 9 -12 14 -26 13 -30z m-2293 27 c3 -5
1 -10 -4 -10 -6 0 -11 5 -11 10 0 6 2 10 4 10 3 0 8 -4 11 -10z m4076 -97 c13
-17 13 -17 -6 -3 -11 8 -22 16 -24 17 -2 2 0 3 6 3 6 0 17 -8 24 -17z m109
-78 c11 -13 10 -14 -4 -9 -9 3 -16 10 -16 15 0 13 6 11 20 -6z m134 -104 c-2
-3 -12 3 -22 13 -16 17 -16 18 5 5 12 -7 20 -15 17 -18z m58 -36 c16 -14 26
-25 23 -25 -4 0 -20 11 -37 25 -16 14 -26 25 -23 25 4 0 20 -11 37 -25z m80
-56 c16 -12 27 -24 24 -26 -3 -3 -19 6 -36 21 -38 31 -30 35 12 5z m94 -70 c3
-6 -5 -3 -20 6 -14 10 -26 19 -26 22 0 7 39 -17 46 -28z m47 -30 c12 -7 33
-22 45 -35 13 -13 37 -29 53 -36 25 -11 39 -28 24 -28 -6 0 -107 71 -115 81
-3 3 -14 11 -25 17 -26 15 -10 15 18 1z m193 -146 c-6 -7 -56 27 -56 39 0 5
14 0 31 -12 16 -12 28 -24 25 -27z m34 -19 c0 -8 -4 -12 -10 -9 -5 3 -10 10
-10 16 0 5 5 9 10 9 6 0 10 -7 10 -16z m220 -164 c0 -5 -2 -10 -4 -10 -3 0 -8
5 -11 10 -3 6 -1 10 4 10 6 0 11 -4 11 -10z m221 -161 c19 -16 20 -18 4 -10
-34 17 -51 31 -39 31 7 0 22 -9 35 -21z m-4056 -319 c4 -52 9 -159 11 -237 1
-78 8 -152 14 -163 17 -31 3 -41 -23 -17 -22 21 -23 27 -20 162 2 77 -1 189
-7 249 -9 104 -6 145 10 115 4 -8 11 -57 15 -109z m1824 21 c8 -5 11 -16 8
-24 -3 -8 -1 -19 5 -25 15 -15 2 -42 -20 -42 -15 0 -19 8 -20 50 -1 51 3 56
27 41z m-1884 -102 c21 -80 16 -332 -8 -378 -9 -18 -14 -37 -11 -42 3 -5 2 -9
-3 -9 -29 1 -203 178 -203 206 0 13 -8 24 -20 27 -14 4 -18 11 -14 24 5 14 4
15 -4 3 -9 -12 -15 -10 -36 13 -26 28 -61 87 -52 87 3 0 16 -5 29 -11 20 -9
30 -8 51 6 26 17 26 17 26 -9 0 -19 5 -26 19 -26 11 0 22 6 24 13 4 9 8 9 15
-1 8 -11 19 -9 58 12 31 17 42 26 29 26 -17 1 -18 2 -5 13 17 14 31 36 56 85
21 41 31 33 49 -39z m-275 -14 c0 -8 -4 -15 -10 -15 -5 0 -10 7 -10 15 0 8 5
15 10 15 6 0 10 -7 10 -15z m2173 -9 c7 -18 -1 -26 -25 -26 -21 0 -23 11 -6
28 16 16 25 15 31 -2z m-2253 -26 c0 -5 -4 -10 -10 -10 -5 0 -10 5 -10 10 0 6
5 10 10 10 6 0 10 -4 10 -10z m2269 -49 c10 -10 25 -21 32 -24 11 -5 10 -9 -5
-21 -10 -8 -22 -13 -27 -11 -4 3 -10 1 -14 -5 -3 -5 -13 -10 -22 -10 -14 0
-13 3 3 21 17 19 18 21 1 30 -21 12 -23 39 -2 39 8 0 23 -8 34 -19z m41 -111
c0 -5 -4 -10 -10 -10 -5 0 -10 5 -10 10 0 6 5 10 10 10 6 0 10 -4 10 -10z m17
-106 c1 -5 -2 -16 -7 -24 -12 -20 -35 2 -26 25 6 17 27 16 33 -1z m-1910 -94
c-9 -79 -17 -111 -28 -104 -10 6 -12 72 -3 127 4 24 12 37 22 37 12 0 14 -10
9 -60z m1917 31 c9 -15 -23 -36 -36 -23 -5 5 -7 15 -4 21 9 13 33 14 40 2z
m-1 -61 c6 0 4 -7 -5 -16 -18 -18 -38 -11 -38 13 0 10 6 13 16 9 9 -3 21 -6
27 -6z m2 -69 c-8 -13 -35 -15 -35 -2 0 5 8 11 18 13 21 5 26 2 17 -11z m11
-172 c9 -15 -13 -28 -36 -22 -23 6 -15 33 10 33 11 0 22 -5 26 -11z m-9 -80
c-14 -8 -22 -8 -30 0 -8 8 -3 11 19 11 25 -1 27 -2 11 -11z m3 -184 c0 -9 -6
-12 -15 -9 -8 4 -12 10 -9 15 8 14 24 10 24 -6z m20 -55 c0 -5 -9 -10 -21 -10
-11 0 -17 5 -14 10 3 6 13 10 21 10 8 0 14 -4 14 -10z m55 -50 c3 -5 1 -10 -4
-10 -6 0 -11 5 -11 10 0 6 2 10 4 10 3 0 8 -4 11 -10z m-45 -10 c0 -5 -11 -10
-25 -10 -14 0 -25 5 -25 10 0 6 11 10 25 10 14 0 25 -4 25 -10z m0 -60 c0 -5
-7 -10 -15 -10 -8 0 -15 5 -15 10 0 6 7 10 15 10 8 0 15 -4 15 -10z m5 -60
c-3 -5 -15 -10 -26 -10 -10 0 -19 5 -19 10 0 6 12 10 26 10 14 0 23 -4 19 -10z
m5 -50 c0 -5 -9 -10 -21 -10 -11 0 -17 5 -14 10 3 6 13 10 21 10 8 0 14 -4 14
-10z m-70 -30 c0 -5 -2 -10 -4 -10 -3 0 -8 5 -11 10 -3 6 -1 10 4 10 6 0 11
-4 11 -10z m20 -110 c0 -5 -7 -10 -16 -10 -8 0 -12 5 -9 10 3 6 10 10 16 10 5
0 9 -4 9 -10z m120 -155 c0 -8 -4 -15 -9 -15 -13 0 -22 16 -14 24 11 11 23 6
23 -9z m18 -125 c4 -12 3 -13 -10 -3 -8 7 -18 10 -21 6 -4 -3 -7 -1 -7 6 0 17
32 10 38 -9z m1 -52 c0 -13 -3 -18 -5 -12 -2 6 -19 8 -37 6 -38 -5 -26 14 13
21 14 2 26 5 28 6 1 0 2 -9 1 -21z m16 -68 c3 -5 2 -10 -4 -10 -5 0 -13 5 -16
10 -3 6 -2 10 4 10 5 0 13 -4 16 -10z m-2263 -104 c24 -32 9 -49 -36 -41 -38
8 -42 15 -26 46 14 25 41 24 62 -5z m2288 -76 c0 -5 -13 -10 -30 -10 -16 0
-30 5 -30 10 0 6 14 10 30 10 17 0 30 -4 30 -10z m-109 -32 c1 -13 3 -35 5
-50 1 -16 -1 -28 -7 -28 -5 0 -9 15 -9 34 0 19 -3 41 -6 50 -3 9 -1 16 5 16 6
0 12 -10 12 -22z m15 -143 c4 -40 -13 -47 -22 -10 -7 27 2 62 13 51 4 -3 8
-22 9 -41z m94 31 c0 -8 -5 -18 -10 -21 -13 -8 -42 14 -34 26 9 15 44 10 44
-5z m3760 -406 c0 -5 -4 -10 -10 -10 -5 0 -10 5 -10 10 0 6 5 10 10 10 6 0 10
-4 10 -10z m-7935 -130 c-3 -5 -12 -10 -20 -10 -8 0 -17 5 -20 10 -4 6 5 10
20 10 15 0 24 -4 20 -10z m7336 -13 c-13 -13 -26 -3 -16 12 3 6 11 8 17 5 6
-4 6 -10 -1 -17z m-461 -7 c0 -5 -4 -10 -10 -10 -5 0 -10 5 -10 10 0 6 5 10
10 10 6 0 10 -4 10 -10z m620 -30 c0 -12 -8 -12 -35 0 -18 8 -17 9 8 9 15 1
27 -3 27 -9z m-7293 -122 c-3 -8 -6 -5 -6 6 -1 11 2 17 5 13 3 -3 4 -12 1 -19z
m563 -68 c0 -5 -2 -10 -4 -10 -3 0 -8 5 -11 10 -3 6 -1 10 4 10 6 0 11 -4 11
-10z m21 -120 c-17 -32 -31 -65 -31 -74 0 -10 -4 -14 -10 -11 -13 8 -1 65 21
97 10 15 19 33 19 41 0 7 6 19 13 26 26 26 19 -21 -12 -79z m-42 38 c-7 -13
-14 -18 -16 -11 -3 7 2 19 9 27 18 20 22 12 7 -16z m7538 -94 c-3 -3 -12 -4
-19 -1 -8 3 -5 6 6 6 11 1 17 -2 13 -5z m-6960 -99 c0 -8 -4 -15 -8 -15 -4 0
-9 7 -13 15 -3 9 0 15 8 15 7 0 13 -7 13 -15z m76 -2 c-7 -2 -21 -2 -30 0 -10
3 -4 5 12 5 17 0 24 -2 18 -5z m-48 -23 c3 -6 -5 -10 -19 -10 -14 0 -28 -4
-31 -10 -9 -14 -27 -12 -23 2 3 7 15 15 29 19 35 10 37 10 44 -1z m98 3 c-7
-2 -19 -2 -25 0 -7 3 -2 5 12 5 14 0 19 -2 13 -5z m-206 -75 c-2 -13 -4 -3 -4
22 0 25 2 35 4 23 2 -13 2 -33 0 -45z m123 7 c0 -14 -4 -25 -9 -25 -10 0 -21
36 -13 44 12 13 22 5 22 -19z m-215 6 c3 -5 1 -12 -5 -16 -5 -3 -10 1 -10 9 0
18 6 21 15 7z m56 -31 c10 0 19 -4 19 -10 0 -5 -6 -10 -13 -10 -16 0 -37 20
-36 35 0 5 3 4 6 -2 2 -7 13 -13 24 -13z m89 -22 c0 -19 -2 -20 -10 -8 -13 19
-13 30 0 30 6 0 10 -10 10 -22z m160 -28 c0 -5 -5 -10 -11 -10 -5 0 -7 5 -4
10 3 6 8 10 11 10 2 0 4 -4 4 -10z m-40 -15 c0 -9 -9 -15 -22 -15 -21 0 -21 0
-2 15 24 18 24 18 24 0z m-287 -12 c-7 -2 -19 -2 -25 0 -7 3 -2 5 12 5 14 0
19 -2 13 -5z m-33 -652 c20 -39 12 -59 -27 -70 -43 -12 -73 6 -73 45 0 43 80
62 100 25z m6467 -167 c-3 -3 -12 -4 -19 -1 -8 3 -5 6 6 6 11 1 17 -2 13 -5z
m83 -55 c0 -5 -7 -9 -15 -9 -9 0 -15 9 -15 21 0 18 2 19 15 9 8 -7 15 -16 15
-21z m170 -264 c0 -8 -4 -15 -10 -15 -5 0 -10 7 -10 15 0 8 5 15 10 15 6 0 10
-7 10 -15z m-306 -77 c-8 -13 -31 -9 -37 6 -3 8 -3 16 0 19 8 8 43 -16 37 -25z
m161 22 c37 -5 42 -8 19 -9 -18 0 -34 -8 -38 -16 -3 -8 -10 -15 -16 -15 -5 0
-10 7 -10 15 0 8 -3 15 -7 15 -5 0 -19 3 -33 6 -20 4 -22 3 -10 -5 17 -12 6
-14 -29 -4 -23 6 -23 7 -5 14 24 10 65 9 129 -1z m-250 -40 c-3 -5 -11 -10
-16 -10 -6 0 -7 5 -4 10 3 6 11 10 16 10 6 0 7 -4 4 -10z m-7 -59 c3 -8 -1
-12 -9 -9 -7 2 -15 10 -17 17 -3 8 1 12 9 9 7 -2 15 -10 17 -17z m-68 -31 c0
-5 -4 -10 -10 -10 -5 0 -10 5 -10 10 0 6 5 10 10 10 6 0 10 -4 10 -10z
m-10063 -367 c-2 -27 -3 -5 -3 47 0 52 1 74 3 48 2 -27 2 -69 0 -95z m4572
100 c0 -16 -3 -22 -6 -15 -2 6 -14 12 -26 12 -18 0 -19 -2 -7 -10 12 -8 12
-10 -3 -16 -10 -4 -23 -2 -28 3 -11 11 16 39 46 46 11 2 21 5 23 6 1 0 2 -11
1 -26z m-104 -43 c3 -5 -3 -10 -15 -10 -12 0 -18 5 -15 10 3 6 10 10 15 10 5
0 12 -4 15 -10z m-63 -22 c-6 -6 -15 -8 -19 -4 -4 4 -1 11 7 16 19 12 27 3 12
-12z m-7 -20 c33 15 36 15 29 -2 -8 -21 -52 -29 -69 -12 -8 7 -11 16 -8 20 4
3 10 1 14 -6 6 -9 13 -9 34 0z m-79 -32 c23 -23 17 -28 -26 -21 -26 4 -40 3
-40 -4 0 -6 8 -11 18 -12 14 0 14 -2 -3 -9 -19 -8 -19 -9 2 -9 39 -2 56 -61
17 -61 -8 0 -14 -4 -14 -10 0 -5 -12 -10 -26 -10 -24 0 -26 3 -19 28 4 15 8
41 9 59 1 36 11 49 41 56 11 3 21 5 23 6 2 0 10 -5 18 -13z m149 -10 c-31 -13
-59 -11 -49 5 3 5 22 9 42 9 l37 -1 -30 -13z m65 -10 c0 -2 -7 -7 -16 -10 -8
-3 -12 -2 -9 4 6 10 25 14 25 6z m60 -11 c-7 -9 -15 -13 -19 -10 -3 3 1 10 9
15 21 14 24 12 10 -5z m-385 -14 c-3 -6 -14 -11 -23 -11 -15 1 -15 2 2 15 21
16 32 13 21 -4z m285 9 c0 -5 -15 -9 -32 -9 l-33 1 30 8 c17 4 31 8 33 9 1 0
2 -3 2 -9z m45 -20 c3 -5 1 -10 -4 -10 -6 0 -11 5 -11 10 0 6 2 10 4 10 3 0 8
-4 11 -10z m-143 -78 c-13 -2 -27 -14 -32 -28 -5 -13 -14 -24 -20 -24 -5 0
-11 -8 -11 -17 -1 -10 -5 2 -9 27 -4 25 -6 47 -5 50 2 3 25 3 52 1 27 -3 38
-7 25 -9z m-422 -21 c0 -5 -10 -11 -22 -13 -17 -2 -22 -9 -21 -26 2 -14 -3
-22 -12 -22 -9 0 -15 9 -15 24 0 17 8 27 28 34 35 14 42 14 42 3z m-90 -41 c0
-5 -4 -10 -9 -10 -6 0 -13 5 -16 10 -3 6 1 10 9 10 9 0 16 -4 16 -10z m164
-19 c13 -5 16 -10 8 -15 -11 -6 -52 9 -52 19 0 7 22 5 44 -4z m-144 -35 c0
-11 -19 -15 -25 -6 -3 5 1 10 9 10 9 0 16 -2 16 -4z m-153 -12 c-3 -3 -12 -4
-19 -1 -8 3 -5 6 6 6 11 1 17 -2 13 -5z m1064 -97 c-16 -16 -25 19 -9 36 11
13 13 12 16 -5 2 -11 -1 -25 -7 -31z m-891 25 c0 -13 -12 -22 -22 -16 -10 6
-1 24 13 24 5 0 9 -4 9 -8z"/>
<path d="M7320 6835 c0 -9 5 -15 11 -13 6 2 11 8 11 13 0 5 -5 11 -11 13 -6 2
-11 -4 -11 -13z"/>
<path d="M5760 286 c0 -9 5 -16 10 -16 6 0 10 4 10 9 0 6 -4 13 -10 16 -5 3
-10 -1 -10 -9z"/>
<path d="M6180 7774 c0 -8 5 -12 10 -9 6 4 8 11 5 16 -9 14 -15 11 -15 -7z"/>
<path d="M7020 7575 c0 -20 6 -46 12 -58 7 -12 13 -33 13 -47 0 -22 5 -26 43
-31 23 -3 48 -11 54 -17 7 -7 22 -12 34 -12 11 0 38 -11 58 -25 21 -14 65 -34
99 -46 34 -11 69 -23 77 -26 8 -3 32 -7 53 -9 29 -2 37 1 33 12 -3 7 3 33 14
56 10 23 16 47 12 53 -4 5 -5 18 -4 27 4 21 -45 43 -138 63 -76 16 -201 54
-215 65 -5 4 -30 10 -55 14 -25 4 -55 9 -67 13 -21 5 -23 2 -23 -32z"/>
<path d="M7175 7280 c-3 -5 1 -10 9 -10 8 0 18 5 21 10 3 6 -1 10 -9 10 -8 0
-18 -4 -21 -10z"/>
<path d="M7215 7270 c-5 -9 46 -50 62 -50 20 0 133 -122 185 -200 10 -14 26
-36 38 -50 l20 -25 -9 25 c-5 14 -18 42 -29 61 -11 20 -26 47 -34 60 -38 69
-216 206 -233 179z"/>
<path d="M8550 7260 c-14 -10 -21 -22 -16 -27 5 -4 10 -3 13 3 2 6 17 8 33 6
25 -4 30 -1 30 17 0 27 -26 27 -60 1z"/>
<path d="M7796 7135 c-3 -8 -1 -15 4 -15 6 0 10 7 10 15 0 8 -2 15 -4 15 -2 0
-6 -7 -10 -15z"/>
<path d="M4942 7020 c7 -10 14 -18 15 -16 6 6 -9 36 -18 36 -5 0 -4 -9 3 -20z"/>
<path d="M8882 6971 c16 -23 73 -71 84 -71 5 0 -12 20 -36 45 -45 46 -72 61
-48 26z"/>
<path d="M10220 5926 c0 -2 7 -7 16 -10 8 -3 12 -2 9 4 -6 10 -25 14 -25 6z"/>
<path d="M8085 5890 c-3 -5 -1 -10 4 -10 6 0 11 5 11 10 0 6 -2 10 -4 10 -3 0
-8 -4 -11 -10z"/>
<path d="M8100 5844 c0 -8 5 -12 10 -9 6 3 10 10 10 16 0 5 -4 9 -10 9 -5 0
-10 -7 -10 -16z"/>
<path d="M8110 5795 c0 -9 5 -15 11 -13 6 2 11 8 11 13 0 5 -5 11 -11 13 -6 2
-11 -4 -11 -13z"/>
<path d="M8120 5748 c0 -42 14 -88 26 -88 18 0 18 39 0 46 -8 3 -11 15 -8 30
2 14 0 24 -7 24 -6 0 -11 -6 -11 -12z"/>
<path d="M12637 4336 c-7 -19 4 -27 21 -17 10 6 10 10 -1 20 -12 9 -16 8 -20
-3z"/>
<path d="M12761 3886 c-21 -30 -34 -62 -34 -80 0 -21 9 -37 34 -58 l34 -29 3
58 c2 34 -1 59 -7 61 -14 5 -14 39 0 44 6 2 9 15 7 28 -3 23 -6 21 -37 -24z"/>
<path d="M12514 3275 c-3 -8 6 -36 21 -62 16 -27 33 -58 39 -70 12 -25 26 -30
26 -10 0 6 6 24 14 38 12 23 11 31 -4 64 -9 20 -23 41 -31 46 -22 14 -59 10
-65 -6z"/>
<path d="M5593 3098 c-26 -29 -38 -138 -15 -138 7 0 16 9 19 20 3 11 11 20 18
20 13 0 35 42 35 68 -1 16 -22 52 -32 52 -2 0 -14 -10 -25 -22z"/>
<path d="M12585 3100 c-4 -6 -3 -16 3 -22 13 -13 23 4 13 21 -7 10 -10 10 -16
1z"/>
<path d="M3986 3003 c-14 -4 -16 -7 -6 -13 15 -9 40 -2 40 11 0 9 -3 10 -34 2z"/>
<path d="M5390 2946 c-86 -69 -190 -193 -190 -225 1 -18 3 -15 75 79 55 71 96
115 122 129 19 10 22 9 17 -4 -7 -18 9 -20 24 -2 14 17 26 67 16 67 -5 0 -34
-20 -64 -44z"/>
<path d="M5318 2809 c-19 -20 -22 -29 -10 -29 4 0 15 12 25 25 21 29 10 32
-15 4z"/>
<path d="M5550 2810 c0 -11 4 -20 9 -20 5 0 7 9 4 20 -3 11 -7 20 -9 20 -2 0
-4 -9 -4 -20z"/>
<path d="M10995 2820 c3 -5 15 -10 26 -10 10 0 19 5 19 10 0 6 -12 10 -26 10
-14 0 -23 -4 -19 -10z"/>
<path d="M5540 2741 c0 -25 6 -27 13 -6 4 8 2 17 -3 20 -6 4 -10 -3 -10 -14z"/>
<path d="M4837 2623 c-12 -12 -7 -22 8 -17 8 4 15 10 15 15 0 11 -14 12 -23 2z"/>
<path d="M6300 310 c-13 -8 -12 -10 3 -10 9 0 17 5 17 10 0 12 -1 12 -20 0z"/>
<path d="M6298 273 c7 -3 16 -2 19 1 4 3 -2 6 -13 5 -11 0 -14 -3 -6 -6z"/>
<path d="M6260 210 c0 -5 5 -10 10 -10 6 0 10 5 10 10 0 6 -4 10 -10 10 -5 0
-10 -4 -10 -10z"/>
<path d="M6215 170 c-3 -5 1 -10 9 -10 9 0 16 5 16 10 0 6 -4 10 -9 10 -6 0
-13 -4 -16 -10z"/>
<path d="M6091 148 c-10 -25 1 -44 18 -34 14 9 14 43 1 51 -6 3 -14 -4 -19
-17z"/>
<path d="M5594 60 c3 -14 6 -33 6 -42 0 -10 7 -18 15 -18 19 0 19 -1 -6 46
-14 26 -18 31 -15 14z"/>
<path d="M6080 64 c0 -12 7 -24 15 -28 19 -7 19 5 0 30 -14 19 -14 19 -15 -2z"/>
<path d="M5730 60 c0 -5 7 -10 15 -10 8 0 15 -4 15 -10 0 -5 18 -10 40 -10 22
0 40 5 40 10 0 6 -16 10 -36 10 -19 0 -44 5 -55 10 -13 7 -19 7 -19 0z"/>
<path d="M5920 30 c0 -5 7 -10 16 -10 8 0 12 5 9 10 -3 6 -10 10 -16 10 -5 0
-9 -4 -9 -10z"/>
<path d="M5732 18 c5 -15 28 -23 28 -10 0 5 -7 13 -16 16 -10 4 -14 1 -12 -6z"/>
<path d="M6145 10 c-3 -5 -1 -10 4 -10 6 0 11 5 11 10 0 6 -2 10 -4 10 -3 0
-8 -4 -11 -10z"/>
</g>
</svg>
